<svg xmlns="http://www.w3.org/2000/svg" xmlns:xlink="http://www.w3.org/1999/xlink" width="500" zoomAndPan="magnify" viewBox="0 0 375 374.999991" height="500" preserveAspectRatio="xMidYMid meet" version="1.0"><defs><g/></defs><g fill="#f1842e" fill-opacity="1"><g transform="translate(35.57961, 220.284769)"><g><path d="M 27.46875 -66.390625 C 31.726562 -68.472656 36.097656 -69.972656 40.578125 -70.890625 C 45.066406 -71.816406 50.617188 -72.28125 57.234375 -72.28125 C 63.847656 -72.28125 70.160156 -71.472656 76.171875 -69.859375 C 82.179688 -68.242188 86.664062 -66.046875 89.625 -63.265625 C 94.8125 -58.179688 97.40625 -52.21875 97.40625 -45.375 C 97.40625 -34.644531 88.335938 -29.28125 70.203125 -29.28125 C 63.828125 -29.28125 57.210938 -29.878906 50.359375 -31.078125 C 50.640625 -24.972656 51.773438 -20.671875 53.765625 -18.171875 C 55.753906 -15.679688 59.289062 -14.4375 64.375 -14.4375 C 69.46875 -14.4375 73.675781 -14.988281 77 -16.09375 C 80.332031 -17.207031 83.015625 -18.34375 85.046875 -19.5 C 87.085938 -20.65625 88.820312 -21.234375 90.25 -21.234375 C 91.6875 -21.234375 92.914062 -20.582031 93.9375 -19.28125 C 95.507812 -17.613281 96.296875 -15.320312 96.296875 -12.40625 C 96.296875 -9.5 95.71875 -7.515625 94.5625 -6.453125 C 93.40625 -5.390625 91.578125 -4.347656 89.078125 -3.328125 C 80.285156 0.367188 67.796875 2.21875 51.609375 2.21875 C 38.203125 2.21875 27.171875 -0.992188 18.515625 -7.421875 C 9.867188 -13.847656 5.546875 -22.519531 5.546875 -33.4375 C 5.546875 -38.707031 6.515625 -43.539062 8.453125 -47.9375 C 10.398438 -52.332031 12.992188 -55.984375 16.234375 -58.890625 C 19.472656 -61.804688 23.21875 -64.304688 27.46875 -66.390625 Z M 59.65625 -56.46875 C 54.019531 -56.46875 50.96875 -51.890625 50.5 -42.734375 C 54.945312 -42.367188 57.257812 -42.1875 57.4375 -42.1875 C 63.539062 -42.1875 66.59375 -44.21875 66.59375 -48.28125 C 66.59375 -53.738281 64.28125 -56.46875 59.65625 -56.46875 Z M 59.65625 -56.46875 "/></g></g></g><g fill="#f1842e" fill-opacity="1"><g transform="translate(138.519758, 220.284769)"><g><path d="M 43.84375 0.5625 L 12.078125 0.140625 C 10.503906 0.140625 9.019531 -0.273438 7.625 -1.109375 C 6.238281 -1.941406 5.546875 -3.050781 5.546875 -4.4375 L 5.546875 -12.625 C 5.546875 -14.9375 6.257812 -16.851562 7.6875 -18.375 C 9.125 -19.90625 11.742188 -22.660156 15.546875 -26.640625 C 23.867188 -35.335938 30.203125 -42.367188 34.546875 -47.734375 C 35.378906 -48.742188 35.679688 -49.664062 35.453125 -50.5 C 35.222656 -51.332031 34.597656 -51.75 33.578125 -51.75 L 13.046875 -51.75 C 11.660156 -51.75 10.570312 -52.234375 9.78125 -53.203125 C 9 -54.179688 8.609375 -55.269531 8.609375 -56.46875 L 8.609375 -65.21875 C 8.609375 -68.820312 10.085938 -70.625 13.046875 -70.625 C 47.171875 -70.625 69.832031 -70.578125 81.03125 -70.484375 C 82.601562 -70.484375 84.082031 -70.066406 85.46875 -69.234375 C 86.851562 -68.398438 87.546875 -67.289062 87.546875 -65.90625 L 87.546875 -57.71875 C 87.546875 -55.59375 86.550781 -53.375 84.5625 -51.0625 C 82.570312 -48.75 78.6875 -44.5625 72.90625 -38.5 C 67.125 -32.445312 62.335938 -27.148438 58.546875 -22.609375 C 57.710938 -21.597656 57.410156 -20.675781 57.640625 -19.84375 C 57.878906 -19.007812 58.507812 -18.59375 59.53125 -18.59375 L 85.609375 -18.59375 C 86.992188 -18.59375 88.078125 -18.101562 88.859375 -17.125 C 89.648438 -16.15625 90.046875 -15.070312 90.046875 -13.875 L 90.046875 -5.140625 C 90.046875 -1.523438 88.566406 0.28125 85.609375 0.28125 Z M 43.84375 0.5625 "/></g></g></g><g fill="#f1842e" fill-opacity="1"><g transform="translate(232.719708, 220.284769)"><g><path d="M 18.3125 5.40625 C 30.519531 5.40625 36.625 3.601562 36.625 0 C 36.625 -1.195312 35.882812 -3 34.40625 -5.40625 C 27.65625 -15.957031 17.664062 -34.132812 4.4375 -59.9375 C 3.414062 -62.0625 2.90625 -63.726562 2.90625 -64.9375 C 2.90625 -68.726562 4.804688 -70.625 8.609375 -70.625 L 39.125 -70.625 C 42.082031 -70.625 44.320312 -70.160156 45.84375 -69.234375 C 47.375 -68.304688 48.835938 -66.550781 50.234375 -63.96875 L 63.125 -39.828125 C 63.6875 -38.710938 64.472656 -38.15625 65.484375 -38.15625 C 66.503906 -38.15625 67.289062 -38.710938 67.84375 -39.828125 L 81.171875 -67.4375 C 82.003906 -69.28125 82.972656 -70.296875 84.078125 -70.484375 C 84.453125 -70.484375 85.144531 -70.53125 86.15625 -70.625 L 100.734375 -70.625 C 102.023438 -70.625 102.945312 -70.019531 103.5 -68.8125 C 103.6875 -68.257812 103.78125 -67.632812 103.78125 -66.9375 C 103.78125 -66.25 103.429688 -65.234375 102.734375 -63.890625 C 102.046875 -62.546875 98.554688 -55.164062 92.265625 -41.75 C 85.972656 -28.34375 81.1875 -18.492188 77.90625 -12.203125 C 74.625 -5.921875 72.3125 -1.625 70.96875 0.6875 C 69.625 3 67.84375 5.75 65.625 8.9375 C 63.40625 12.132812 61.273438 14.539062 59.234375 16.15625 C 57.203125 17.78125 54.660156 19.425781 51.609375 21.09375 C 46.242188 23.957031 39.375 25.390625 31 25.390625 C 22.632812 25.390625 17.109375 24.671875 14.421875 23.234375 C 11.742188 21.804688 10.40625 18.6875 10.40625 13.875 C 10.40625 11.5625 10.84375 9.570312 11.71875 7.90625 C 12.601562 6.238281 13.785156 5.40625 15.265625 5.40625 Z M 18.3125 5.40625 "/></g></g></g><g fill="#000000" fill-opacity="1"><g transform="translate(62.075911, 273.770415)"><g><path d="M 3.015625 -29.84375 L 15.765625 -29.84375 L 15.765625 -24.59375 C 17.703125 -28.65625 20.988281 -30.6875 25.625 -30.6875 C 28.320312 -30.6875 30.804688 -30.007812 33.078125 -28.65625 C 35.359375 -27.3125 37.148438 -25.453125 38.453125 -23.078125 C 39.765625 -20.703125 40.421875 -18.046875 40.421875 -15.109375 C 40.421875 -12.160156 39.742188 -9.5 38.390625 -7.125 C 37.046875 -4.75 35.234375 -2.882812 32.953125 -1.53125 C 30.679688 -0.1875 28.253906 0.484375 25.671875 0.484375 C 21.085938 0.484375 17.785156 -1.550781 15.765625 -5.625 L 15.765625 7.859375 L 3.015625 10.265625 Z M 21.8125 -9.0625 C 23.46875 -9.0625 24.878906 -9.664062 26.046875 -10.875 C 27.210938 -12.082031 27.796875 -13.492188 27.796875 -15.109375 C 27.796875 -16.796875 27.203125 -18.222656 26.015625 -19.390625 C 24.828125 -20.554688 23.425781 -21.140625 21.8125 -21.140625 C 20.15625 -21.140625 18.742188 -20.566406 17.578125 -19.421875 C 16.410156 -18.273438 15.828125 -16.914062 15.828125 -15.34375 L 15.828125 -15.109375 C 15.828125 -13.410156 16.421875 -11.976562 17.609375 -10.8125 C 18.796875 -9.644531 20.195312 -9.0625 21.8125 -9.0625 Z M 21.8125 -9.0625 "/></g></g></g><g fill="#000000" fill-opacity="1"><g transform="translate(104.060084, 273.770415)"><g><path d="M 3.015625 -39.8125 L 15.765625 -41.6875 L 15.765625 -24.046875 C 16.648438 -26.179688 17.988281 -27.820312 19.78125 -28.96875 C 21.582031 -30.113281 23.75 -30.6875 26.28125 -30.6875 C 30.144531 -30.6875 33.175781 -29.304688 35.375 -26.546875 C 37.570312 -23.796875 38.671875 -19.984375 38.671875 -15.109375 L 38.671875 0 L 25.984375 0 L 25.984375 -16.375 C 25.984375 -18.101562 25.609375 -19.429688 24.859375 -20.359375 C 24.117188 -21.285156 23.082031 -21.75 21.75 -21.75 C 20.78125 -21.75 19.832031 -21.4375 18.90625 -20.8125 C 17.976562 -20.1875 17.222656 -19.289062 16.640625 -18.125 C 16.054688 -16.957031 15.765625 -15.628906 15.765625 -14.140625 L 15.765625 0 L 3.015625 0 Z M 3.015625 -39.8125 "/></g></g></g><g fill="#000000" fill-opacity="1"><g transform="translate(145.561017, 273.770415)"><g><path d="M 18.90625 0.484375 C 15.53125 0.484375 12.519531 -0.175781 9.875 -1.5 C 7.238281 -2.832031 5.1875 -4.675781 3.71875 -7.03125 C 2.25 -9.394531 1.515625 -12.109375 1.515625 -15.171875 C 1.515625 -18.234375 2.257812 -20.941406 3.75 -23.296875 C 5.238281 -25.648438 7.300781 -27.46875 9.9375 -28.75 C 12.570312 -30.039062 15.582031 -30.6875 18.96875 -30.6875 C 22.394531 -30.6875 25.425781 -30.03125 28.0625 -28.71875 C 30.707031 -27.414062 32.753906 -25.597656 34.203125 -23.265625 C 35.648438 -20.929688 36.375 -18.234375 36.375 -15.171875 C 36.375 -12.066406 35.640625 -9.332031 34.171875 -6.96875 C 32.703125 -4.613281 30.644531 -2.78125 28 -1.46875 C 25.363281 -0.164062 22.332031 0.484375 18.90625 0.484375 Z M 19.03125 -8.578125 C 20.6875 -8.578125 22.046875 -9.191406 23.109375 -10.421875 C 24.179688 -11.648438 24.71875 -13.234375 24.71875 -15.171875 C 24.71875 -17.097656 24.179688 -18.675781 23.109375 -19.90625 C 22.046875 -21.132812 20.6875 -21.75 19.03125 -21.75 C 17.382812 -21.75 16.023438 -21.132812 14.953125 -19.90625 C 13.890625 -18.675781 13.359375 -17.097656 13.359375 -15.171875 C 13.359375 -13.234375 13.890625 -11.648438 14.953125 -10.421875 C 16.023438 -9.191406 17.382812 -8.578125 19.03125 -8.578125 Z M 19.03125 -8.578125 "/></g></g></g><g fill="#000000" fill-opacity="1"><g transform="translate(183.437399, 273.770415)"><g><path d="M 16.25 0.484375 C 12.707031 0.484375 9.945312 -0.53125 7.96875 -2.5625 C 6 -4.601562 5.015625 -7.414062 5.015625 -11 L 5.015625 -22.78125 L 1.140625 -22.78125 L 1.140625 -30.265625 L 5.921875 -30.265625 L 11.546875 -41.6875 L 17.640625 -41.6875 L 17.640625 -30.265625 L 24.65625 -30.265625 L 24.65625 -22.78125 L 17.640625 -22.78125 L 17.640625 -12.5 C 17.640625 -11.5 17.960938 -10.71875 18.609375 -10.15625 C 19.253906 -9.59375 20.160156 -9.3125 21.328125 -9.3125 C 22.410156 -9.3125 23.398438 -9.550781 24.296875 -10.03125 L 24.765625 -1.578125 C 23.765625 -0.972656 22.46875 -0.476562 20.875 -0.09375 C 19.28125 0.289062 17.738281 0.484375 16.25 0.484375 Z M 16.25 0.484375 "/></g></g></g><g fill="#000000" fill-opacity="1"><g transform="translate(209.715268, 273.770415)"><g><path d="M 18.90625 0.484375 C 15.53125 0.484375 12.519531 -0.175781 9.875 -1.5 C 7.238281 -2.832031 5.1875 -4.675781 3.71875 -7.03125 C 2.25 -9.394531 1.515625 -12.109375 1.515625 -15.171875 C 1.515625 -18.234375 2.257812 -20.941406 3.75 -23.296875 C 5.238281 -25.648438 7.300781 -27.46875 9.9375 -28.75 C 12.570312 -30.039062 15.582031 -30.6875 18.96875 -30.6875 C 22.394531 -30.6875 25.425781 -30.03125 28.0625 -28.71875 C 30.707031 -27.414062 32.753906 -25.597656 34.203125 -23.265625 C 35.648438 -20.929688 36.375 -18.234375 36.375 -15.171875 C 36.375 -12.066406 35.640625 -9.332031 34.171875 -6.96875 C 32.703125 -4.613281 30.644531 -2.78125 28 -1.46875 C 25.363281 -0.164062 22.332031 0.484375 18.90625 0.484375 Z M 19.03125 -8.578125 C 20.6875 -8.578125 22.046875 -9.191406 23.109375 -10.421875 C 24.179688 -11.648438 24.71875 -13.234375 24.71875 -15.171875 C 24.71875 -17.097656 24.179688 -18.675781 23.109375 -19.90625 C 22.046875 -21.132812 20.6875 -21.75 19.03125 -21.75 C 17.382812 -21.75 16.023438 -21.132812 14.953125 -19.90625 C 13.890625 -18.675781 13.359375 -17.097656 13.359375 -15.171875 C 13.359375 -13.234375 13.890625 -11.648438 14.953125 -10.421875 C 16.023438 -9.191406 17.382812 -8.578125 19.03125 -8.578125 Z M 19.03125 -8.578125 "/></g></g></g></svg>